<svg width="55" height="55" viewBox="0 0 55 55" fill="none" xmlns="http://www.w3.org/2000/svg">
<circle cx="27.5" cy="27.5" r="27" stroke="#D8D8D8"/>
<path d="M22.62 25.79C24.06 28.62 26.38 30.94 29.21 32.38L31.41 30.18C31.69 29.9 32.08 29.82 32.43 29.93C33.55 30.3 34.75 30.5 36 30.5C36.2652 30.5 36.5196 30.6054 36.7071 30.7929C36.8946 30.9804 37 31.2348 37 31.5V35C37 35.2652 36.8946 35.5196 36.7071 35.7071C36.5196 35.8946 36.2652 36 36 36C31.4913 36 27.1673 34.2089 23.9792 31.0208C20.7911 27.8327 19 23.5087 19 19C19 18.7348 19.1054 18.4804 19.2929 18.2929C19.4804 18.1054 19.7348 18 20 18H23.5C23.7652 18 24.0196 18.1054 24.2071 18.2929C24.3946 18.4804 24.5 18.7348 24.5 19C24.5 20.25 24.7 21.45 25.07 22.57C25.18 22.92 25.1 23.31 24.82 23.59L22.62 25.79Z" fill="#008A93"/>
</svg>
