<svg width="55" height="55" viewBox="0 0 55 55" fill="none" xmlns="http://www.w3.org/2000/svg">
<circle cx="27.5" cy="27.5" r="27" stroke="#D8D8D8"/>
<path d="M21.5 21C21.5 20.7239 21.7239 20.5 22 20.5H36C36.2761 20.5 36.5 20.7239 36.5 21C36.5 21.2761 36.2761 21.5 36 21.5H22C21.7239 21.5 21.5 21.2761 21.5 21Z" fill="#90E900" stroke="#008A93"/>
<rect x="-0.278519" y="0.458699" width="13.4477" height="0.765119" rx="0.38256" transform="matrix(0.245252 0.969459 -0.973293 0.229568 21.2774 16.6744)" fill="#90E900" stroke="#008A93" stroke-width="0.765119"/>
<rect x="23.5" y="28.5" width="11" height="1" rx="0.5" fill="#90E900" stroke="#008A93"/>
<rect x="22.5" y="24.5" width="13" height="1" rx="0.5" fill="#90E900" stroke="#008A93"/>
<rect x="14.3966" y="16.3966" width="6.34483" height="0.793103" rx="0.396552" fill="#90E900" stroke="#008A93" stroke-width="0.793103"/>
<path d="M25.1756 37.3941C26.5399 37.3941 27.6657 36.2978 27.6657 34.9211C27.6657 33.5445 26.5399 32.4482 25.1756 32.4482C23.8113 32.4482 22.6855 33.5445 22.6855 34.9211C22.6855 36.2978 23.8113 37.3941 25.1756 37.3941Z" stroke="#008A93" stroke-width="2"/>
<path d="M34.116 37.3941C35.4803 37.3941 36.6061 36.2978 36.6061 34.9211C36.6061 33.5445 35.4803 32.4482 34.116 32.4482C32.7517 32.4482 31.6259 33.5445 31.6259 34.9211C31.6259 36.2978 32.7517 37.3941 34.116 37.3941Z" stroke="#008A93" stroke-width="2"/>
</svg>
